Coordinates
version=1
nRows=38
nColumns=12
inDegrees=yes

Units are S.I. units (second, meters, Newtons, ...)
Angles are in degrees

endheader
time	SC_y	SC_z	SC_x	AC_y	AC_z	AC_x	GH_y	GH_z	GH_yy	EL_x	PS_y
       0.0               -36.3          4.966          44.03          50.03         -4.506         -19.28         -155.6          49.46         -74.33          69.18          130.6
   0.01915               -36.3          4.966          44.04          50.03         -4.508         -19.27         -155.5          49.46          -74.3          69.18          130.5
   0.03829              -36.31          4.967          44.04          50.03         -4.511         -19.27         -155.5          49.46         -74.26          69.17          130.5
   0.05744              -36.31          4.967          44.05          50.04         -4.513         -19.26         -155.5          49.46         -74.22          69.17          130.5
   0.07659              -36.31          4.967          44.06          50.04         -4.515         -19.26         -155.5          49.45         -74.18          69.17          130.5
   0.09574              -36.31          4.967          44.06          50.04         -4.518         -19.25         -155.5          49.45         -74.14          69.16          130.5
    0.1149              -36.31          4.967          44.07          50.05         -4.521         -19.25         -155.5          49.45         -74.09          69.16          130.5
     0.134              -36.31          4.968          44.08          50.05         -4.524         -19.24         -155.4          49.45         -74.04          69.15          130.5
    0.1532              -36.31          4.968          44.09          50.06         -4.527         -19.23         -155.4          49.45         -73.99          69.15          130.5
    0.1723              -36.31          4.968           44.1          50.06         -4.531         -19.22         -155.4          49.45         -73.93          69.14          130.5
    0.1915              -36.31          4.968           44.1          50.07         -4.534         -19.21         -155.4          49.45         -73.87          69.14          130.5
    0.2106              -36.31          4.969          44.12          50.07         -4.538          -19.2         -155.4          49.44         -73.81          69.13          130.5
    0.2298              -36.31          4.969          44.13          50.08         -4.543         -19.19         -155.3          49.44         -73.74          69.12          130.4
    0.2489              -36.31          4.969          44.14          50.08         -4.547         -19.18         -155.3          49.44         -73.66          69.12          130.4
    0.2681              -36.31           4.97          44.15          50.09         -4.552         -19.17         -155.3          49.44         -73.58          69.11          130.4
    0.2872              -36.31           4.97          44.17           50.1         -4.558         -19.16         -155.2          49.44         -73.49           69.1          130.4
    0.3064              -36.31           4.97          44.18           50.1         -4.564         -19.15         -155.2          49.43         -73.39          69.09          130.4
    0.3255              -36.31          4.971           44.2          50.11         -4.571         -19.13         -155.2          49.43         -73.29          69.08          130.4
    0.3446              -36.31          4.971          44.22          50.12         -4.578         -19.11         -155.1          49.43         -73.17          69.07          130.3
    0.3638              -36.31          4.972          44.24          50.13         -4.585          -19.1         -155.1          49.42         -73.05          69.05          130.3
    0.3829              -36.31          4.972          44.26          50.14         -4.594         -19.08         -155.0          49.42         -72.91          69.04          130.3
    0.4021              -36.32          4.973          44.28          50.16         -4.603         -19.05         -155.0          49.42         -72.76          69.02          130.2
    0.4212              -36.32          4.974          44.31          50.17         -4.614         -19.03         -154.9          49.41         -72.59          69.01          130.2
    0.4404              -36.32          4.975          44.34          50.19         -4.625          -19.0         -154.8          49.41          -72.4          68.99          130.2
    0.4595              -36.32          4.976          44.38           50.2         -4.638         -18.97         -154.8           49.4         -72.19          68.97          130.1
    0.4787              -36.32          4.977          44.41          50.22         -4.652         -18.94         -154.7          49.39         -71.96          68.95          130.1
    0.4978              -36.32          4.978          44.45          50.24         -4.668          -18.9         -154.6          49.39          -71.7          68.92          130.0
     0.517              -36.33          4.979           44.5          50.27         -4.686         -18.86         -154.5          49.38         -71.41          68.89          130.0
    0.5361              -36.33           4.98          44.55          50.29         -4.707         -18.82         -154.4          49.37         -71.08          68.86          129.9
    0.5553              -36.33          4.982          44.61          50.32          -4.73         -18.76         -154.2          49.36         -70.71          68.82          129.8
    0.5744              -36.33          4.984          44.68          50.36         -4.756          -18.7         -154.1          49.35         -70.28          68.78          129.8
    0.5936              -36.34          4.986          44.76           50.4         -4.787         -18.63         -153.9          49.34         -69.79          68.73          129.7
    0.6127              -36.34          4.988          44.85          50.45         -4.821         -18.55         -153.7          49.32         -69.23          68.67          129.6
    0.6319              -36.35          4.991          44.96           50.5         -4.862         -18.46         -153.4           49.3         -68.57          68.61          129.4
     0.651              -36.35          4.995          45.08          50.56          -4.91         -18.35         -153.2          49.28          -67.8          68.53          129.3
    0.6701              -36.36          4.998          45.23          50.64         -4.966         -18.22         -152.8          49.26         -66.89          68.44          129.1
    0.6893              -36.37          5.003           45.4          50.73         -5.032         -18.06         -152.4          49.23         -65.82          68.33          128.9
    0.7084              -36.38          5.009          45.61          50.83         -5.112         -17.88         -152.0           49.2         -64.52           68.2          128.6
